<?xml version="1.0" standalone="no"?>
<!DOCTYPE svg PUBLIC "-//W3C//DTD SVG 20010904//EN"
 "http://www.w3.org/TR/2001/REC-SVG-20010904/DTD/svg10.dtd">
<svg version="1.0" xmlns="http://www.w3.org/2000/svg"
 width="100.000000pt" height="100.000000pt" viewBox="0 0 100.000000 100.000000"
 preserveAspectRatio="xMidYMid meet">
<metadata>
Created by potrace 1.11, written by Peter Selinger 2001-2013
</metadata>
<g transform="translate(0.000000,100.000000) scale(0.100000,-0.100000)"
fill="#000000" stroke="none">
<path d="M770 953 c-8 -16 -44 -77 -80 -138 -65 -107 -86 -145 -185 -330 -27
-49 -71 -127 -97 -173 -26 -46 -48 -87 -48 -92 0 -4 -7 -14 -16 -21 -15 -12
-16 -8 -11 56 3 39 17 128 31 200 14 72 28 144 31 160 4 28 7 42 20 105 24
121 29 194 15 220 -24 44 -30 29 -104 -260 -10 -38 -104 -266 -151 -365 -52
-110 -111 -212 -147 -251 -21 -23 -15 -57 10 -52 46 9 222 355 302 595 13 40
26 70 28 68 2 -2 -6 -50 -17 -107 -30 -144 -31 -149 -36 -183 -3 -16 -8 -37
-10 -45 -7 -24 -18 -142 -18 -183 0 -21 7 -45 15 -53 13 -14 17 -14 30 0 16
15 114 185 198 341 23 44 59 109 78 145 56 104 132 229 144 236 8 5 9 1 4 -12
-48 -122 -156 -597 -158 -694 -2 -82 2 -99 22 -110 17 -9 22 -7 29 12 5 15 4
30 -5 43 -18 29 -11 121 21 260 7 33 16 80 20 105 3 25 10 59 15 75 5 17 21
74 36 129 14 54 35 123 45 152 11 30 21 62 23 71 1 10 6 25 9 33 11 28 11 45
-1 68 -17 29 -26 28 -42 -5z"/>
</g>
</svg>
